<svg aria-hidden="true" style="position: absolute; width: 0; height: 0; overflow: hidden;" version="1.1" xmlns="http://www.w3.org/2000/svg" xmlns:xlink="http://www.w3.org/1999/xlink">
  <defs>
    <symbol id="arrow-long-left" viewBox="0 0 32 32">
      <path d="M8.048 8.352c0.217 0.217 0.351 0.517 0.351 0.848s-0.134 0.631-0.351 0.848v0l-3.952 3.952h25.904c0.663 0 1.2 0.537 1.2 1.2s-0.537 1.2-1.2 1.2v0h-25.904l3.952 3.952c0.235 0.22 0.382 0.532 0.382 0.878 0 0.663-0.537 1.2-1.2 1.2-0.346 0-0.658-0.147-0.877-0.381l-0.001-0.001-6-6c-0.217-0.217-0.351-0.517-0.351-0.848s0.134-0.631 0.351-0.848v0l6-6c0.217-0.217 0.517-0.351 0.848-0.351s0.631 0.134 0.848 0.351v0z"></path>
    </symbol>
    <symbol id="arrow-right-on-rectangle" viewBox="0 0 32 32">
      <path stroke-linejoin="round" stroke-linecap="round" stroke-miterlimit="4" stroke-width="1.6842" d="M19.368 10.947v-6.316c0-2.093-1.697-3.789-3.789-3.789v0h-10.105c-2.093 0-3.789 1.697-3.789 3.789v0 22.737c0 2.093 1.697 3.789 3.789 3.789v0h10.105c2.093 0 3.789-1.697 3.789-3.789v0-6.316M24.421 10.947l5.053 5.053-5.053 5.053M29.474 16h-21.474"></path>
    </symbol>
    <symbol id="arrow-up-tray" viewBox="0 0 32 32">
      <path stroke-linejoin="round" stroke-linecap="round" stroke-miterlimit="4" stroke-width="1.6842" d="M0.842 23.579v3.789c0 2.093 1.697 3.789 3.789 3.789v0h22.737c2.093 0 3.789-1.697 3.789-3.789v0-3.789M23.579 8.421l-7.579-7.579-7.579 7.579M16 0.842v22.737"></path>
    </symbol>
    <symbol id="cog-tooth" viewBox="0 0 32 32">
      <path stroke-linejoin="round" stroke-linecap="round" stroke-miterlimit="4" stroke-width="1.6842" d="M11.262 2.425c0.152-0.913 0.943-1.583 1.869-1.583h4.367c0.926 0 1.718 0.67 1.869 1.583l0.359 2.157c0.108 0.63 0.529 1.155 1.088 1.465q0.185 0.101 0.371 0.214c0.544 0.33 1.213 0.433 1.809 0.209l2.050-0.768c0.198-0.077 0.427-0.121 0.667-0.121 0.697 0 1.307 0.377 1.636 0.938l0.005 0.009 2.184 3.784c0.159 0.272 0.253 0.598 0.253 0.947 0 0.588-0.268 1.113-0.688 1.461l-0.003 0.003-1.691 1.393c-0.493 0.404-0.736 1.032-0.724 1.671q0.002 0.216 0 0.429c-0.013 0.637 0.231 1.263 0.724 1.667l1.693 1.395c0.714 0.589 0.899 1.607 0.438 2.408l-2.188 3.784c-0.334 0.57-0.943 0.947-1.641 0.947-0.239 0-0.467-0.044-0.678-0.125l0.013 0.004-2.048-0.768c-0.598-0.224-1.263-0.121-1.812 0.209-0.068 0.044-0.189 0.116-0.312 0.185l-0.059 0.031c-0.559 0.308-0.98 0.834-1.086 1.464l-0.357 2.156c-0.152 0.915-0.943 1.585-1.869 1.585h-4.372c-0.926 0-1.718-0.67-1.869-1.583l-0.359-2.157c-0.104-0.63-0.525-1.155-1.085-1.465-0.182-0.099-0.303-0.17-0.422-0.243l0.052 0.029c-0.547-0.33-1.213-0.433-1.812-0.209l-2.050 0.768c-0.198 0.076-0.426 0.121-0.666 0.121-0.697 0-1.306-0.376-1.635-0.937l-0.005-0.009-2.183-3.784c-0.159-0.272-0.253-0.598-0.253-0.947 0-0.588 0.268-1.113 0.688-1.461l0.003-0.003 1.691-1.393c0.492-0.404 0.736-1.032 0.724-1.671-0.001-0.064-0.002-0.139-0.002-0.215s0.001-0.151 0.002-0.226l-0 0.011c0.012-0.637-0.232-1.263-0.724-1.667l-1.691-1.395c-0.423-0.35-0.691-0.875-0.691-1.463 0-0.348 0.094-0.674 0.258-0.954l-0.005 0.009 2.184-3.784c0.334-0.571 0.943-0.948 1.641-0.948 0.239 0 0.468 0.044 0.679 0.125l-0.013-0.004 2.048 0.768c0.6 0.224 1.265 0.121 1.812-0.209q0.182-0.111 0.371-0.216c0.559-0.308 0.98-0.834 1.085-1.464z"></path>
      <path stroke-linejoin="round" stroke-linecap="round" stroke-miterlimit="4" stroke-width="1.6842" d="M20.367 16c0 2.791-2.262 5.053-5.053 5.053s-5.053-2.262-5.053-5.053v0c0-2.79 2.262-5.053 5.053-5.053s5.053 2.262 5.053 5.053v0"></path>
    </symbol>
    <symbol id="eye" viewBox="0 0 32 32">
      <path stroke-linejoin="round" stroke-linecap="round" stroke-miterlimit="4" stroke-width="1.4545" d="M0.803 16.468c-0.048-0.139-0.076-0.298-0.076-0.465s0.028-0.326 0.079-0.475l-0.003 0.010c2.017-6.070 7.744-10.448 14.493-10.448 6.746 0 12.47 4.374 14.492 10.441 0.102 0.301 0.102 0.627 0 0.929-2.016 6.070-7.743 10.448-14.492 10.448-6.746 0-12.471-4.374-14.493-10.441"></path>
      <path stroke-linejoin="round" stroke-linecap="round" stroke-miterlimit="4" stroke-width="1.4545" d="M19.66 16c0 2.41-1.954 4.364-4.364 4.364s-4.364-1.954-4.364-4.364v0c0-2.41 1.954-4.364 4.364-4.364s4.364 1.954 4.364 4.364v0"></path>
    </symbol>
    <symbol id="eye-slash" viewBox="0 0 32 32">
      <path stroke-linejoin="round" stroke-linecap="round" stroke-miterlimit="4" stroke-width="1.4545" d="M3.703 10.506c-1.311 1.541-2.331 3.375-2.947 5.386l-0.029 0.108c1.879 6.31 7.724 10.909 14.641 10.909 1.444 0 2.841-0.201 4.164-0.575M6.973 7.604c2.357-1.575 5.255-2.513 8.372-2.513 0.008 0 0.017 0 0.025 0h-0.001c6.918 0 12.761 4.599 14.64 10.906-1.074 3.521-3.281 6.427-6.188 8.363l-0.056 0.035M6.973 7.604l-4.695-4.695M6.973 7.604l5.309 5.309M23.764 24.396l4.695 4.695M23.764 24.396l-5.309-5.309c0.79-0.79 1.278-1.881 1.278-3.086 0-2.41-1.954-4.364-4.364-4.364-1.205 0-2.296 0.488-3.086 1.278v0M18.454 19.085l-6.169-6.169"></path>
    </symbol>
    <symbol id="minus-small" viewBox="0 0 32 32">
      <path d="M0 15.429c0-0.947 0.767-1.714 1.714-1.714v0h27.429c0.947 0 1.714 0.768 1.714 1.714s-0.767 1.714-1.714 1.714v0h-27.429c-0.947 0-1.714-0.767-1.714-1.714v0z"></path>
    </symbol>
    <symbol id="pencil-square" viewBox="0 0 32 32">
      <path stroke-linejoin="round" stroke-linecap="round" stroke-miterlimit="4" stroke-width="1.6" d="M22.979 4.379l2.699-2.701c0.543-0.543 1.293-0.879 2.122-0.879 1.657 0 3 1.343 3 3 0 0.829-0.336 1.579-0.879 2.122l-16.99 16.992c-0.823 0.822-1.843 1.446-2.984 1.795l-0.051 0.013-4.296 1.28 1.28-4.298c0.362-1.192 0.986-2.213 1.808-3.035l-0 0zM22.979 4.379l4.221 4.221M24.8 19.6v7.6c0 1.988-1.612 3.6-3.6 3.6v0h-16.8c-1.988 0-3.6-1.612-3.6-3.6v0-16.8c0-1.988 1.612-3.6 3.6-3.6v0h7.6"></path>
    </symbol>
    <symbol id="plus-circle" viewBox="0 0 32 32">
      <path stroke-linejoin="round" stroke-linecap="round" stroke-miterlimit="4" stroke-width="1.6842" d="M16 10.947v10.105M21.053 16h-10.105M31.158 16c0 8.371-6.786 15.158-15.158 15.158s-15.158-6.786-15.158-15.158v0c0-8.371 6.786-15.158 15.158-15.158s15.158 6.786 15.158 15.158v0"></path>
    </symbol>
    <symbol id="plus-small" viewBox="0 0 32 32">
      <path stroke-linejoin="round" stroke-linecap="round" stroke-miterlimit="4" stroke-width="2.4615" d="M16 1.231v29.538M30.769 16h-29.538"></path>
    </symbol>
    <symbol id="shevron-double" viewBox="0 0 32 32">
      <path d="M16.491 23.151c-0.255 0.255-0.608 0.413-0.998 0.413s-0.742-0.158-0.998-0.413v0l-14.118-14.118c-0.235-0.251-0.379-0.59-0.379-0.962 0-0.78 0.632-1.412 1.412-1.412 0.372 0 0.711 0.144 0.963 0.38l-0.001-0.001 13.12 13.12 13.12-13.12c0.258-0.277 0.625-0.449 1.033-0.449 0.78 0 1.412 0.632 1.412 1.412 0 0.407-0.173 0.774-0.448 1.032l-0.001 0.001z"></path>
    </symbol>
    <symbol id="trash" viewBox="0 0 32 32">
      <path stroke-linejoin="round" stroke-linecap="round" stroke-miterlimit="4" stroke-width="1.5238" d="M19.794 11.048l-0.527 13.714M11.971 24.762l-0.527-13.714M21.333 5.553c2.638 0.207 4.988 0.511 7.3 0.923l-0.443-0.066M26.633 6.158l-1.627 21.155c-0.142 1.776-1.618 3.163-3.418 3.163-0 0-0.001 0-0.001 0h-11.934c-0 0-0.001 0-0.001 0-1.8 0-3.276-1.387-3.418-3.151l-0.001-0.012-1.627-21.157M4.605 6.156c-0.907 0.13-1.437 0.219-1.964 0.314l0.407-0.061M4.605 6.158c1.386-0.227 3.205-0.442 5.043-0.588l0.257-0.016M21.333 5.553v-1.396c0-1.798-1.387-3.298-3.185-3.354-0.754-0.026-1.64-0.040-2.53-0.040s-1.776 0.015-2.658 0.044l0.128-0.003c-1.798 0.056-3.185 1.557-3.185 3.352v1.397M21.333 5.553c-1.711-0.139-3.703-0.219-5.714-0.219s-4.004 0.080-5.974 0.236l0.26-0.017"></path>
    </symbol>
    <symbol id="user" viewBox="0 0 32 32">
      <path stroke-linejoin="miter" stroke-linecap="butt" stroke-miterlimit="4" stroke-width="1.3333" d="M31.333 16c0 8.468-6.865 15.333-15.333 15.333s-15.333-6.865-15.333-15.333c0-8.468 6.865-15.333 15.333-15.333s15.333 6.865 15.333 15.333z"></path>
      <path stroke-linejoin="round" stroke-linecap="round" stroke-miterlimit="4" stroke-width="1.3333" d="M20 9.436c0 1.088-0.421 2.132-1.171 2.901-0.717 0.739-1.72 1.199-2.829 1.2h-0c-1.11-0.001-2.112-0.461-2.828-1.199l-0.001-0.001c-0.724-0.748-1.171-1.768-1.171-2.893 0-0.003 0-0.006 0-0.009v0c0-1.088 0.421-2.132 1.171-2.901 0.717-0.74 1.719-1.2 2.829-1.201h0c1.061 0 2.079 0.432 2.829 1.201s1.171 1.813 1.171 2.901M8 24.88c0.032-2.23 0.938-4.243 2.39-5.716l-0.001 0.001c1.43-1.45 3.415-2.349 5.61-2.355h0.001c2.1 0 4.115 0.845 5.611 2.356 1.451 1.472 2.357 3.484 2.389 5.707l0 0.006c-2.338 1.128-5.084 1.787-7.984 1.787-0.006 0-0.011 0-0.017 0h0.001c-2.855 0-5.564-0.64-8-1.787"></path>
    </symbol>
    <symbol id="calendar" viewBox="0 0 32 32">
      <path stroke-linejoin="round" stroke-linecap="round" stroke-miterlimit="4" stroke-width="2" d="M7.25 1v3.75M24.75 1v3.75M1 27.25v-18.75c0-2.071 1.679-3.75 3.75-3.75v0h22.5c2.071 0 3.75 1.679 3.75 3.75v0 18.75M31 27.25v-12.5c0-2.071-1.679-3.75-3.75-3.75v0h-22.5c-2.071 0-3.75 1.679-3.75 3.75v0 12.5c0 2.071 1.679 3.75 3.75 3.75v0h22.5c2.071 0 3.75-1.679 3.75-3.75v0M16 17.25h0.013v0.013h-0.013zM16 21h0.013v0.013h-0.013zM16 24.75h0.013v0.013h-0.013zM12.25 21h0.013v0.013h-0.013zM12.25 24.75h0.013v0.013h-0.013zM8.5 21h0.013v0.013h-0.013zM8.5 24.75h0.013v0.013h-0.013zM19.75 17.25h0.013v0.013h-0.013zM19.75 21h0.013v0.013h-0.013zM19.75 24.75h0.013v0.013h-0.013zM23.5 17.25h0.013v0.013h-0.013zM23.5 21h0.013v0.013h-0.013z"></path>
    </symbol>
    <symbol id="close" viewBox="0 0 32 32">
      <path stroke-linejoin="round" stroke-linecap="round" stroke-miterlimit="4" stroke-width="3.4286" d="M1.714 29.143l27.429-27.429M1.714 1.714l27.429 27.429"></path>
    </symbol>
    <symbol id="glas" viewBox="0 0 32 32">
      <path d="M3.733 0l2.282 31.635v0.086h19.638l2.283-31.623v-0.098zM24.848 30.835h-18.021l-1.71-23.696h0.941l1.547 20.883c0.010 0.11 0.059 0.213 0.139 0.288 0.079 0.075 0.183 0.117 0.292 0.118h0.036c0.119-0.008 0.224-0.064 0.296-0.149l0.001-0.001c0.065-0.075 0.105-0.173 0.105-0.28 0-0.013-0.001-0.026-0.002-0.039l0 0.002-1.547-20.821h19.634zM26.619 6.253h-19.76l-0.339-4.615c-0.011-0.117-0.065-0.219-0.146-0.292l-0-0c-0.076-0.071-0.178-0.114-0.291-0.114-0.004 0-0.009 0-0.013 0h0.001c-0.119 0.011-0.222 0.069-0.294 0.154l-0.001 0.001c-0.067 0.079-0.107 0.182-0.107 0.295 0 0.009 0 0.018 0.001 0.026l-0-0.001 0.34 4.555h-0.954l-0.388-5.381h22.34z"></path>
      <path d="M10.687 11.522c0.283 0 0.56-0.085 0.795-0.245 0.236-0.16 0.419-0.386 0.528-0.652 0.069-0.164 0.108-0.355 0.108-0.555 0-0.4-0.16-0.763-0.419-1.029l0 0c-0.257-0.263-0.615-0.426-1.011-0.426-0.198 0-0.387 0.041-0.559 0.115l0.009-0.004c-0.267 0.115-0.485 0.298-0.639 0.529l-0.003 0.005c-0.152 0.227-0.242 0.507-0.242 0.808 0 0.4 0.16 0.763 0.419 1.027l-0-0c0.269 0.272 0.634 0.426 1.013 0.426zM10.687 9.497c0.001 0 0.002 0 0.003 0 0.234 0 0.434 0.145 0.516 0.35l0.001 0.004c0.027 0.065 0.043 0.14 0.043 0.219 0 0.157-0.063 0.3-0.165 0.404l0-0c-0.102 0.104-0.244 0.168-0.401 0.168-0.31 0-0.562-0.252-0.562-0.562 0-0.004 0-0.008 0-0.012v0.001c0-0 0-0 0-0 0-0.157 0.063-0.3 0.165-0.404l-0 0c0.106-0.107 0.249-0.167 0.399-0.167zM10.681 16.242c0.003 0.288 0.091 0.565 0.251 0.803 0.16 0.236 0.384 0.419 0.647 0.527 0.158 0.066 0.341 0.105 0.534 0.105 0.401 0 0.763-0.167 1.020-0.435l0-0c0.254-0.264 0.411-0.624 0.411-1.020 0-0.203-0.041-0.397-0.116-0.573l0.004 0.010c-0.113-0.268-0.296-0.487-0.525-0.643l-0.005-0.003c-0.222-0.15-0.495-0.24-0.79-0.24-0.4 0-0.762 0.166-1.020 0.433l-0 0c-0.254 0.263-0.411 0.621-0.411 1.016 0 0.007 0 0.015 0 0.022v-0.001zM12.671 16.242c-0 0.236-0.142 0.439-0.345 0.528l-0.004 0.001c-0.064 0.028-0.139 0.044-0.218 0.044-0.156 0-0.297-0.064-0.398-0.168l-0-0c-0.101-0.104-0.163-0.245-0.163-0.401 0-0.313 0.25-0.568 0.562-0.576h0.001c0.149 0 0.292 0.060 0.399 0.167 0.106 0.107 0.165 0.253 0.165 0.405zM20.855 16.279c0.283 0 0.56-0.085 0.796-0.245s0.419-0.386 0.527-0.651c0.069-0.164 0.109-0.356 0.109-0.556 0-0.4-0.16-0.763-0.419-1.028l0 0c-0.257-0.263-0.615-0.426-1.011-0.426-0.198 0-0.387 0.041-0.559 0.115l0.009-0.004c-0.267 0.115-0.486 0.299-0.64 0.53l-0.003 0.005c-0.151 0.227-0.242 0.507-0.242 0.807 0 0.4 0.16 0.763 0.42 1.028l-0-0c0.268 0.271 0.633 0.425 1.012 0.425zM20.855 14.26c0 0 0.001 0 0.001 0 0.236 0 0.437 0.145 0.52 0.351l0.001 0.004c0.027 0.064 0.042 0.139 0.042 0.217 0 0.159-0.064 0.303-0.168 0.407v0c-0.102 0.102-0.243 0.164-0.398 0.164-0.079 0-0.154-0.016-0.222-0.045l0.004 0.001c-0.204-0.088-0.345-0.288-0.345-0.521 0-0.005 0-0.009 0-0.014v0.001c0.001-0.157 0.065-0.298 0.168-0.401l-0 0c0.106-0.106 0.249-0.165 0.397-0.165zM15.868 13.54c0.284 0 0.56-0.085 0.796-0.245 0.235-0.159 0.419-0.386 0.528-0.651 0.069-0.164 0.108-0.355 0.108-0.555 0-0.4-0.16-0.763-0.419-1.029l0 0c-0.257-0.263-0.615-0.426-1.011-0.426-0.198 0-0.387 0.041-0.559 0.115l0.009-0.004c-0.267 0.114-0.486 0.298-0.64 0.528l-0.003 0.005c-0.152 0.227-0.242 0.507-0.242 0.807 0 0.4 0.16 0.763 0.42 1.028l-0-0c0.269 0.273 0.633 0.427 1.013 0.427zM15.869 11.517c0.002-0 0.004-0 0.006-0 0.234 0 0.434 0.145 0.515 0.349l0.001 0.004c0.027 0.065 0.043 0.14 0.043 0.219 0 0.158-0.064 0.301-0.167 0.405l0-0c-0.102 0.105-0.245 0.17-0.402 0.17-0.31 0-0.561-0.251-0.561-0.561 0-0.005 0-0.010 0-0.015v0.001c-0-0.008-0.001-0.017-0.001-0.027 0-0.154 0.059-0.293 0.156-0.398l-0 0c0.103-0.109 0.248-0.177 0.409-0.178h0zM13.138 21.776c0.005 0.235 0.080 0.465 0.213 0.658 0.133 0.192 0.32 0.341 0.538 0.428 0.128 0.053 0.277 0.083 0.433 0.083 0.333 0 0.633-0.139 0.846-0.362l0-0c0.209-0.216 0.337-0.511 0.337-0.836 0-0.169-0.035-0.329-0.097-0.475l0.003 0.008c-0.092-0.221-0.242-0.403-0.432-0.531l-0.004-0.003c-0.183-0.125-0.41-0.2-0.654-0.201h-0c-0.33 0.009-0.626 0.15-0.838 0.371l-0 0c-0.213 0.222-0.345 0.524-0.345 0.857 0 0.001 0 0.002 0 0.003v-0zM14.321 21.456c0.001 0 0.002 0 0.003 0 0.131 0 0.242 0.081 0.288 0.195l0.001 0.002c0.016 0.036 0.025 0.079 0.025 0.123 0 0.088-0.036 0.168-0.093 0.226l0-0c-0.057 0.058-0.136 0.094-0.224 0.094-0.174 0-0.315-0.141-0.315-0.315 0-0.002 0-0.004 0-0.005v0c0-0.085 0.033-0.166 0.093-0.226 0.057-0.057 0.136-0.093 0.223-0.094h0zM18.859 20.441c0.243 0.009 0.483-0.058 0.689-0.189 0.205-0.133 0.365-0.32 0.462-0.54l0.003-0.008c0.064-0.145 0.101-0.314 0.101-0.492 0-0.337-0.134-0.643-0.351-0.868l0 0c-0.218-0.226-0.523-0.366-0.861-0.366-0.172 0-0.336 0.036-0.484 0.102l0.008-0.003c-0.224 0.096-0.413 0.259-0.544 0.467-0.121 0.189-0.194 0.419-0.194 0.666 0 0.337 0.134 0.642 0.351 0.866l-0-0c0.218 0.224 0.512 0.353 0.821 0.364zM18.86 18.918c0.084 0 0.164 0.034 0.224 0.094 0.058 0.058 0.094 0.138 0.094 0.227s-0.036 0.169-0.094 0.227v0c-0.057 0.058-0.136 0.094-0.224 0.094s-0.167-0.036-0.224-0.094l-0-0c-0.059-0.058-0.096-0.138-0.097-0.227v-0c0-0 0-0 0-0 0-0.133 0.081-0.248 0.197-0.296l0.002-0.001c0.036-0.015 0.077-0.023 0.12-0.023 0 0 0.001 0 0.001 0h-0zM21.359 10.507c0.24 0 0.475-0.073 0.674-0.208s0.353-0.324 0.445-0.544l0.003-0.008c0.058-0.139 0.091-0.3 0.091-0.468 0-0.34-0.136-0.648-0.356-0.873l0 0c-0.219-0.222-0.523-0.36-0.859-0.36-0.167 0-0.327 0.034-0.472 0.096l0.008-0.003c-0.226 0.097-0.411 0.252-0.541 0.448l-0.003 0.004c-0.128 0.193-0.205 0.429-0.205 0.684 0 0.339 0.136 0.647 0.357 0.872l-0-0c0.227 0.23 0.535 0.361 0.858 0.361zM21.359 8.986c0.027-0.008 0.057-0.013 0.089-0.013 0.123 0 0.23 0.072 0.279 0.177l0.001 0.002c0.021 0.041 0.033 0.090 0.033 0.142 0 0.104-0.049 0.196-0.125 0.256l-0.001 0.001c-0.053 0.040-0.12 0.064-0.193 0.064-0.030 0-0.059-0.004-0.086-0.012l0.002 0.001c-0.027 0.008-0.057 0.013-0.089 0.013-0.123 0-0.23-0.072-0.279-0.177l-0.001-0.002c-0.021-0.042-0.033-0.091-0.033-0.143 0-0.104 0.049-0.197 0.125-0.256l0.001-0.001c0.053-0.040 0.12-0.064 0.192-0.064 0.030 0 0.060 0.004 0.088 0.012l-0.002-0.001zM9.498 29.291c-0.111 0.051-0.195 0.145-0.232 0.26l-0.001 0.003c-0.014 0.041-0.022 0.089-0.022 0.139 0 0.078 0.020 0.152 0.055 0.216l-0.001-0.002c0.075 0.141 0.22 0.237 0.388 0.24h0c0.002 0 0.005 0 0.008 0 0.068 0 0.132-0.016 0.189-0.044l-0.002 0.001c1.738-0.922 3.798-1.467 5.985-1.477h0.003c2.205 0.032 4.378 0.529 6.383 1.458 0.059 0.032 0.129 0.051 0.203 0.051 0.113 0 0.216-0.044 0.293-0.115l-0 0c0.088-0.082 0.143-0.199 0.143-0.329 0-0.060-0.012-0.118-0.034-0.17l0.001 0.003c-0.043-0.109-0.125-0.196-0.228-0.244l-0.003-0.001c-1.981-0.943-4.3-1.507-6.748-1.539l-0.011-0c-2.214 0.002-4.397 0.533-6.37 1.551z"></path>
    </symbol>
    <symbol id="chart-bar" viewBox="0 0 32 32">
      <path fill="none" stroke-linejoin="round" stroke-linecap="round" stroke-miterlimit="4" stroke-width="1.8286" d="M3.2 2.286v17.143c0 1.894 1.535 3.429 3.429 3.429v0h3.429M3.2 2.286h-2.286M3.2 2.286h25.143M10.057 22.857h11.429M10.057 22.857l-1.524 4.571M28.343 2.286h2.286M28.343 2.286v17.143c0 1.894-1.535 3.429-3.429 3.429v0h-3.429M21.486 22.857l1.524 4.571M8.533 27.429h14.477M8.533 27.429l-0.762 2.286M23.010 27.429l0.762 2.286M11.2 14.857v2.286M15.771 11.429v5.714M20.343 8v9.143"></path>
    </symbol>
    <symbol id="vrench-screwdriver" viewBox="0 0 32 32">
      <path fill="none" stroke-linejoin="round" stroke-linecap="round" stroke-miterlimit="4" stroke-width="1.8286" d="M14.892 20.602l8.884 8.884c0.726 0.704 1.718 1.138 2.811 1.138 2.232 0 4.041-1.809 4.041-4.041 0-1.093-0.434-2.084-1.139-2.812l0.001 0.001-8.955-8.955M12.752 15.171l2.659-2.19-6.491-6.491v-2.147l-5.714-3.429-2.286 2.286 3.429 5.714h2.147l6.258 6.258-10.418 8.579c-0.87 0.718-1.421 1.796-1.421 3.003 0 2.145 1.738 3.883 3.883 3.883 1.207 0 2.285-0.551 2.997-1.414l0.005-0.007 10.896-13.232c0.484-0.585 1.127-0.954 1.841-1.167 0.837-0.251 1.772-0.287 2.655-0.214 0.176 0.016 0.38 0.025 0.587 0.025 3.787 0 6.857-3.070 6.857-6.857 0-1.023-0.224-1.994-0.626-2.865l0.018 0.043-4.992 4.994c-1.706-0.405-3.024-1.723-3.422-3.397l-0.006-0.031 4.992-4.992c-0.829-0.384-1.8-0.608-2.823-0.608-3.787 0-6.857 3.070-6.857 6.857 0 0.207 0.009 0.411 0.027 0.613l-0.002-0.026c0.139 1.639-0.108 3.45-1.378 4.495l-0.155 0.13M25.49 25.486l-4-4M4.907 26.629h0.012v0.012h-0.012z"></path>
    </symbol>
  </defs>
</svg>